<svg width="45" height="45" viewBox="0 0 45 45" fill="none" xmlns="http://www.w3.org/2000/svg">
<path d="M25.2 31.7644C25.2008 31.9165 25.1714 32.0673 25.1136 32.208C25.0558 32.3488 24.9707 32.4767 24.8633 32.5844C24.7558 32.6921 24.6281 32.7775 24.4875 32.8356C24.3469 32.8938 24.1962 32.9235 24.0441 32.9231C23.328 32.9231 22.6412 32.6387 22.1349 32.1323C21.6285 31.626 21.3441 30.9392 21.3441 30.2231V22.5C21.3441 22.4492 21.334 22.3988 21.3145 22.3519C21.2949 22.305 21.2663 22.2624 21.2302 22.2265C21.1941 22.1907 21.1513 22.1624 21.1043 22.1432C21.0572 22.124 21.0068 22.1143 20.9559 22.1147C20.6486 22.1147 20.3539 21.9926 20.1366 21.7753C19.9193 21.558 19.7972 21.2633 19.7972 20.9559C19.7972 20.6486 19.9193 20.3539 20.1366 20.1366C20.3539 19.9193 20.6486 19.7972 20.9559 19.7972C21.3108 19.7972 21.6621 19.8671 21.9898 20.003C22.3176 20.1388 22.6154 20.338 22.8661 20.589C23.1169 20.84 23.3157 21.138 23.4512 21.4659C23.5868 21.7938 23.6563 22.1452 23.6559 22.5V30.2203C23.6559 30.2712 23.666 30.3215 23.6855 30.3684C23.7051 30.4154 23.7337 30.458 23.7698 30.4938C23.8059 30.5296 23.8487 30.5579 23.8958 30.5771C23.9428 30.5963 23.9932 30.606 24.0441 30.6056C24.1964 30.6049 24.3475 30.6343 24.4884 30.6923C24.6293 30.7503 24.7573 30.8356 24.8651 30.9434C24.9728 31.0511 25.0582 31.1791 25.1161 31.3201C25.1741 31.461 25.2036 31.612 25.2028 31.7644M21.7294 15.9384C22.2415 15.9384 22.7326 15.735 23.0947 15.3729C23.4567 15.0108 23.6602 14.5197 23.6602 14.0077C23.6602 13.4956 23.4567 13.0045 23.0947 12.6424C22.7326 12.2803 22.2415 12.0769 21.7294 12.0769C21.2173 12.0769 20.7262 12.2803 20.3641 12.6424C20.002 13.0045 19.7986 13.4956 19.7986 14.0077C19.7986 14.5197 20.002 15.0108 20.3641 15.3729C20.7262 15.735 21.2173 15.9384 21.7294 15.9384ZM42.1875 22.5C42.1875 26.3938 41.0329 30.2002 38.8696 33.4378C36.7063 36.6754 33.6315 39.1988 30.0341 40.6889C26.4367 42.179 22.4782 42.5689 18.6592 41.8092C14.8402 41.0496 11.3322 39.1745 8.57884 36.4212C5.8255 33.6678 3.95045 30.1598 3.1908 26.3408C2.43115 22.5218 2.82103 18.5633 4.31113 14.9659C5.80123 11.3685 8.32463 8.29373 11.5622 6.13044C14.7998 3.96715 18.6062 2.8125 22.5 2.8125C27.7192 2.81994 32.7224 4.89654 36.413 8.58705C40.1035 12.2776 42.1801 17.2808 42.1875 22.5ZM39.8728 22.5C39.8723 19.0648 38.8531 15.7069 36.9443 12.8508C35.0354 9.99475 32.3226 7.76883 29.1487 6.45449C25.9749 5.14014 22.4826 4.79639 19.1134 5.46671C15.7442 6.13702 12.6494 7.7913 10.2204 10.2204C7.79131 12.6494 6.13703 15.7442 5.46672 19.1134C4.7964 22.4826 5.14015 25.9749 6.4545 29.1487C7.76884 32.3226 9.99476 35.0354 12.8508 36.9443C15.7069 38.8531 19.0648 39.8723 22.5 39.8728C27.1062 39.8683 31.5224 38.0366 34.7795 34.7795C38.0366 31.5224 39.8684 27.1062 39.8728 22.5Z" fill="black"/>
</svg>
