<svg width="36" height="36" viewBox="0 0 36 36" fill="none" xmlns="http://www.w3.org/2000/svg">
<circle cx="18" cy="18" r="18" fill="#FCCCD7"/>
<path d="M20.7159 9.51632C21.0034 9.22887 21.3933 9.06738 21.7999 9.06738C22.2065 9.06738 22.5965 9.22887 22.884 9.51632L29.784 16.4163C30.0715 16.7039 30.2329 17.0938 30.2329 17.5004C30.2329 17.907 30.0715 18.2969 29.784 18.5845L22.884 25.4845C22.5948 25.7638 22.2075 25.9183 21.8055 25.9148C21.4034 25.9113 21.0188 25.7501 20.7345 25.4658C20.4503 25.1815 20.289 24.7969 20.2855 24.3949C20.282 23.9928 20.4366 23.6055 20.7159 23.3163L24.8666 19.0337H10.2999C9.89327 19.0337 9.50326 18.8722 9.2157 18.5846C8.92815 18.2971 8.7666 17.9071 8.7666 17.5004C8.7666 17.0937 8.92815 16.7037 9.2157 16.4162C9.50326 16.1286 9.89327 15.9671 10.2999 15.9671H24.8666L20.7159 11.6845C20.4284 11.3969 20.2669 11.007 20.2669 10.6004C20.2669 10.1938 20.4284 9.80386 20.7159 9.51632Z" fill="white"/>
</svg>
