<svg width="18" height="23" viewBox="0 0 18 23" fill="none" xmlns="http://www.w3.org/2000/svg">
<path d="M6.88255 9.82262L8.76775 8.10481C9.28322 7.63419 9.64553 7.02111 9.80816 6.34425C9.9708 5.66739 9.92635 4.95764 9.68051 4.30608L8.87658 2.17104C8.57623 1.37397 7.98162 0.720765 7.2139 0.34451C6.44618 -0.0317439 5.56311 -0.102742 4.74459 0.14598C1.73248 1.06249 -0.582772 3.84695 0.129882 7.15338C0.598549 9.32857 1.49551 12.0589 3.19465 14.9638C4.8973 17.8757 6.84218 20.0265 8.50972 21.5383C11.0268 23.8165 14.6252 23.2474 16.9405 21.1001C17.5607 20.5244 17.937 19.7352 17.9928 18.8932C18.0485 18.0513 17.7796 17.2198 17.2406 16.5682L15.7662 14.7875C15.3215 14.249 14.7249 13.8552 14.0533 13.6567C13.3817 13.4582 12.6657 13.4642 11.9975 13.6737L9.56115 14.4366C8.93159 13.7911 8.38019 13.0746 7.91818 12.3016C7.47236 11.5199 7.12455 10.6867 6.88255 9.82087" fill="currentColor"/>
</svg>
