<svg width="23" height="23" viewBox="0 0 23 23" fill="none" xmlns="http://www.w3.org/2000/svg">
<g clip-path="url(#clip0_458_457)">
<path d="M0.162882 20.873L10.3321 0.750363C10.4467 0.52326 10.6155 0.333741 10.821 0.201708C11.0265 0.069675 11.2611 0 11.5 0C11.7389 0 11.9735 0.069675 12.179 0.201708C12.3845 0.333741 12.5533 0.52326 12.6679 0.750363L22.8371 20.873C22.9478 21.0921 23.0039 21.3387 22.9998 21.5885C22.9957 21.8383 22.9315 22.0826 22.8136 22.2973C22.6957 22.512 22.5281 22.6898 22.3275 22.813C22.1268 22.9362 21.8999 23.0007 21.6693 23H1.33074C1.10006 23.0007 0.873197 22.9362 0.672526 22.813C0.471855 22.6898 0.30431 22.512 0.186413 22.2973C0.0685153 22.0826 0.0043387 21.8383 0.000212373 21.5885C-0.00391395 21.3387 0.0521525 21.0921 0.162882 20.873ZM12.9156 13.4149L13.6287 8.78139C13.6498 8.64419 13.643 8.50367 13.6089 8.36959C13.5747 8.23551 13.514 8.11109 13.431 8.00496C13.348 7.89884 13.2447 7.81356 13.1282 7.75505C13.0116 7.69653 12.8848 7.66619 12.7563 7.66613H10.2437C10.1152 7.66619 9.98836 7.69653 9.87185 7.75505C9.75534 7.81356 9.65199 7.89884 9.56898 8.00496C9.48597 8.11109 9.42529 8.23551 9.39115 8.36959C9.35701 8.50367 9.35024 8.64419 9.3713 8.78139L10.0844 13.4149H12.9156ZM13.4464 17.0558C13.4464 16.4967 13.2414 15.9606 12.8763 15.5653C12.5113 15.17 12.0162 14.9479 11.5 14.9479C10.9838 14.9479 10.4887 15.17 10.1237 15.5653C9.75863 15.9606 9.55356 16.4967 9.55356 17.0558C9.55356 17.6148 9.75863 18.151 10.1237 18.5463C10.4887 18.9416 10.9838 19.1637 11.5 19.1637C12.0162 19.1637 12.5113 18.9416 12.8763 18.5463C13.2414 18.151 13.4464 17.6148 13.4464 17.0558Z" fill="white"/>
</g>
<defs>
<clipPath id="clip0_458_457">
<rect width="23" height="23" fill="white"/>
</clipPath>
</defs>
</svg>
