<svg width="26" height="26" viewBox="0 0 26 26" fill="none" xmlns="http://www.w3.org/2000/svg">
<path d="M8.12909 21.4365L6.50586 24.3654" stroke="currentColor" stroke-linecap="round" stroke-linejoin="round"/>
<path d="M17.8711 21.4365L19.4943 24.3654" stroke="currentColor" stroke-linecap="round" stroke-linejoin="round"/>
<path d="M12.9992 22.7415C18.3792 22.7415 22.7405 18.3802 22.7405 13.0002C22.7405 7.62015 18.3792 3.25879 12.9992 3.25879C7.61917 3.25879 3.25781 7.62015 3.25781 13.0002C3.25781 18.3802 7.61917 22.7415 12.9992 22.7415Z" stroke="currentColor" stroke-linecap="round" stroke-linejoin="round"/>
<path d="M3.58422 10.4038C2.83636 9.84329 2.26557 9.07942 1.93994 8.20337C1.61432 7.32732 1.54762 6.37608 1.74781 5.46316C1.94799 4.55023 2.40661 3.71418 3.06893 3.05477C3.73125 2.39535 4.56931 1.94041 5.4831 1.74424C6.39689 1.54807 7.34783 1.61895 8.22244 1.94842C9.09705 2.27789 9.85841 2.85204 10.4157 3.60236" stroke="currentColor" stroke-linecap="round" stroke-linejoin="round"/>
<path d="M13 3.2593L13 1.63574" stroke="currentColor" stroke-linecap="round" stroke-linejoin="round"/>
<path d="M13 8.12988V13.0005" stroke="currentColor" stroke-linecap="round" stroke-linejoin="round"/>
<path d="M13 13.001L16.4441 16.4451" stroke="currentColor" stroke-linecap="round" stroke-linejoin="round"/>
<path d="M22.4154 10.4038C23.1633 9.84329 23.7341 9.07942 24.0597 8.20337C24.3853 7.32732 24.452 6.37608 24.2518 5.46316C24.0516 4.55023 23.593 3.71418 22.9307 3.05477C22.2684 2.39535 21.4303 1.94041 20.5165 1.74424C19.6027 1.54807 18.6518 1.61895 17.7772 1.94842C16.9026 2.27789 16.1412 2.85204 15.584 3.60236" stroke="currentColor" stroke-linecap="round" stroke-linejoin="round"/>
</svg>
