<svg width="33" height="26" viewBox="0 0 33 26" fill="none" xmlns="http://www.w3.org/2000/svg">
<path fill-rule="evenodd" clip-rule="evenodd" d="M1.6115 1.63243C-1.09275e-07 3.263 0 5.89086 0 11.1429V14.8571C0 20.1091 -1.09275e-07 22.737 1.6115 24.3676C3.22117 26 5.81533 26 11 26H22C27.1847 26 29.7788 26 31.3885 24.3676C33 22.737 33 20.1091 33 14.8571V11.1429C33 5.89086 33 3.263 31.3885 1.63243C29.7788 3.32083e-07 27.1847 0 22 0H11C5.81533 0 3.22117 3.32083e-07 1.6115 1.63243ZM6.5175 5.88343C6.11296 5.61007 5.61778 5.51069 5.14091 5.60717C4.66403 5.70364 4.24452 5.98806 3.97467 6.39786C3.70481 6.80765 3.60671 7.30926 3.70195 7.79233C3.79718 8.27539 4.07796 8.70035 4.4825 8.97371L14.4668 15.7151C15.069 16.1216 15.7764 16.3385 16.5 16.3385C17.2236 16.3385 17.931 16.1216 18.5332 15.7151L28.5175 8.97371C28.922 8.70035 29.2028 8.27539 29.2981 7.79233C29.3933 7.30926 29.2952 6.80765 29.0253 6.39786C28.7555 5.98806 28.336 5.70364 27.8591 5.60717C27.3822 5.51069 26.887 5.61007 26.4825 5.88343L16.5 12.6249L6.5175 5.88343Z" fill="currentColor"/>
</svg>
