<svg width="24" height="24" viewBox="0 0 24 24" fill="none" xmlns="http://www.w3.org/2000/svg">
<path d="M8.4 21C6.88333 21 5.604 20.4793 4.562 19.438C3.52 18.3967 2.99933 17.1173 3 15.6C3 14.9667 3.10833 14.35 3.325 13.75C3.54167 13.15 3.85 12.6083 4.25 12.125L7.8 7.85L5.375 3H18.625L16.2 7.85L19.75 12.125C20.15 12.6083 20.4583 13.15 20.675 13.75C20.8917 14.35 21 14.9667 21 15.6C21 17.1167 20.475 18.396 19.425 19.438C18.375 20.48 17.1 21.0007 15.6 21H8.4ZM12 16C11.45 16 10.9793 15.8043 10.588 15.413C10.1967 15.0217 10.0007 14.5507 10 14C9.99933 13.4493 10.1953 12.9787 10.588 12.588C10.9807 12.1973 11.4513 12.0013 12 12C12.5487 11.9987 13.0197 12.1947 13.413 12.588C13.8063 12.9813 14.002 13.452 14 14C13.998 14.548 13.8023 15.019 13.413 15.413C13.0237 15.807 12.5527 16.0027 12 16ZM9.625 7H14.375L15.375 5H8.625L9.625 7ZM8.4 19H15.6C16.55 19 17.3543 18.671 18.013 18.013C18.6717 17.355 19.0007 16.5507 19 15.6C19 15.2 18.929 14.8127 18.787 14.438C18.645 14.0633 18.4493 13.7257 18.2 13.425L14.525 9H9.5L5.8 13.4C5.55 13.7 5.35433 14.0417 5.213 14.425C5.07167 14.8083 5.00067 15.2 5 15.6C5 16.55 5.32933 17.3543 5.988 18.013C6.64667 18.6717 7.45067 19.0007 8.4 19Z" fill="currentColor"/>
</svg>
