<svg width="24" height="24" viewBox="0 0 24 24" fill="none" xmlns="http://www.w3.org/2000/svg">
<path d="M6.44 13.8004C6.44 13.9737 6.43766 14.1507 6.433 14.3314C6.42833 14.5127 6.426 14.6944 6.426 14.8764C6.426 15.2764 6.101 15.6024 5.7 15.6024H5.214C5.02162 15.6021 4.83722 15.5255 4.70128 15.3894C4.56535 15.2533 4.489 15.0687 4.489 14.8764C4.489 14.6944 4.48666 14.5127 4.482 14.3314C4.47786 14.1544 4.47586 13.9774 4.476 13.8004V12.2964C4.476 12.1244 4.48433 11.9087 4.501 11.6494C4.523 11.3854 4.54266 11.1174 4.56 10.8454C4.58133 10.5734 4.59 10.3357 4.586 10.1324L4.534 8.20137C4.6988 8.16925 4.86546 8.14754 5.033 8.13637C5.33276 8.11948 5.63323 8.11948 5.933 8.13637C6.229 8.15237 6.439 8.41537 6.439 8.71137L6.44 13.8004ZM3.186 14.7854C3.281 14.7854 4.076 14.7814 4.266 14.7854C4.456 14.7894 4.171 14.7854 4.266 14.7854H6.426C6.526 14.7854 6.763 14.7894 6.966 14.7854C7.173 14.7814 6.871 14.7854 6.966 14.7854H7.251C7.717 14.7854 8.105 15.1104 8.105 15.5754C8.105 16.0634 7.759 16.4054 7.272 16.4054H3.018C2.90056 16.4077 2.78618 16.3678 2.6957 16.293C2.60521 16.2181 2.54463 16.1132 2.525 15.9974C2.49979 15.7857 2.49343 15.5722 2.506 15.3594C2.529 15.0164 2.842 14.7854 3.186 14.7854ZM2.298 11.5324C2.022 11.1524 2.262 10.6694 2.64 10.3904C3 10.1237 3.30933 9.85403 3.568 9.58137C3.974 9.15337 4.266 8.46937 4.534 8.20137C4.627 8.23637 4.737 8.42837 4.841 8.66537C5.14 9.34537 5.122 10.1594 4.631 10.7154C4.29868 11.0876 3.91035 11.4058 3.48 11.6584C3.088 11.8944 2.575 11.8964 2.298 11.5324ZM9.845 10.6254C9.381 10.4544 9.271 9.89537 9.514 9.46537C9.5868 9.33403 9.66937 9.20834 9.761 9.08937C10.0231 8.74471 10.3626 8.46655 10.7521 8.27737C11.1415 8.08819 11.5701 7.9933 12.003 8.00037C12.5563 8.00037 13.0383 8.10837 13.449 8.32437C13.859 8.53637 14.1763 8.83637 14.401 9.22437C14.631 9.6097 14.7457 10.0637 14.745 10.5864C14.745 10.949 14.6737 11.2774 14.531 11.5714C14.3883 11.8654 14.2003 12.1374 13.967 12.3874C13.7337 12.6374 13.4767 12.8817 13.196 13.1204L12.269 13.8454L11.783 14.2544C11.6097 14.4017 11.4607 14.544 11.336 14.6814C11.211 14.8204 11.291 14.6864 11.286 14.7854L11.179 15.5894C11.1489 15.8152 11.0379 16.0225 10.8664 16.1726C10.695 16.3227 10.4749 16.4054 10.247 16.4054C10.1111 16.4076 9.9766 16.3783 9.85394 16.3199C9.73128 16.2614 9.62382 16.1753 9.54 16.0684C9.46862 15.9751 9.3996 15.8801 9.333 15.7834C9.19806 15.5845 9.12595 15.3497 9.126 15.1094C9.126 14.872 9.193 14.632 9.327 14.3894C9.465 14.148 9.64633 13.9064 9.871 13.6644C10.101 13.4184 10.3477 13.1764 10.611 12.9384L12.016 11.7264C12.206 11.5624 12.366 11.383 12.496 11.1884C12.626 10.9944 12.6907 10.7744 12.69 10.5284C12.6968 10.2982 12.6132 10.0746 12.457 9.90537C12.3017 9.73203 12.0817 9.6457 11.797 9.64637C11.6516 9.64229 11.5074 9.67313 11.3763 9.73629C11.2453 9.79945 11.1314 9.89309 11.044 10.0094L11.01 10.0534C10.717 10.4374 10.302 10.7834 9.845 10.6254ZM13.725 14.7914C14.465 14.7884 15.127 15.4564 14.667 16.0364C14.4737 16.283 14.1473 16.4064 13.688 16.4064H10.436C10.2889 16.4065 10.145 16.364 10.0216 16.2839C9.89828 16.2038 9.80079 16.0897 9.741 15.9554C9.559 15.5514 9.761 15.0784 10.195 14.9874C10.321 14.9614 10.453 14.9374 10.591 14.9154C11.503 14.7604 12.436 14.7834 13.361 14.7904L13.688 14.7924H13.726L13.725 14.7914ZM19.933 13.7874C19.933 13.446 19.8207 13.1847 19.596 13.0034C19.3695 12.8139 19.0811 12.7145 18.786 12.7244C18.6653 12.7244 18.5463 12.7377 18.429 12.7644C18.207 12.8134 17.961 12.8154 17.801 12.6534C17.7299 12.5785 17.6647 12.4983 17.606 12.4134C17.464 12.2014 17.34 12.1234 17.34 11.7974C18.012 11.6484 18.116 11.6364 18.41 11.5714C18.704 11.5014 18.883 11.4544 19.388 11.4544C19.8847 11.4544 20.3297 11.5474 20.723 11.7334C21.1163 11.914 21.4277 12.184 21.657 12.5434C21.8857 12.8974 22 13.3357 22 13.8584C22.0073 14.2617 21.9207 14.6613 21.747 15.0254C21.5861 15.357 21.3539 15.649 21.067 15.8804C20.7777 16.1137 20.445 16.291 20.069 16.4124C19.693 16.5324 19.2953 16.5927 18.876 16.5934C18.3268 16.6017 17.7805 16.5116 17.263 16.3274C17.0857 16.2596 16.9124 16.1818 16.744 16.0944C16.317 15.8674 16.142 15.3454 16.407 14.9414C16.672 14.5474 17.211 14.5664 17.642 14.7664L17.697 14.7914C17.9823 14.9127 18.289 14.9734 18.617 14.9734C18.8857 14.9734 19.117 14.9257 19.311 14.8304C19.509 14.731 19.6623 14.593 19.771 14.4164C19.879 14.2384 19.933 14.0287 19.933 13.7874ZM20.27 11.1624C20.0854 11.349 19.8785 11.5122 19.654 11.6484C19.4361 11.7851 19.2089 11.9064 18.974 12.0114C18.674 12.1414 18.809 11.6644 18.484 11.6934L17.34 11.7974C17.53 11.4544 18.54 10.6244 18.54 10.6244C18.622 10.5424 18.717 10.4497 18.825 10.3464C19.0097 10.176 19.1977 10.0093 19.389 9.84637C19.3985 9.83954 19.4053 9.82959 19.4082 9.81826C19.4111 9.80694 19.41 9.79494 19.405 9.78437C19.3994 9.77287 19.3902 9.76346 19.3789 9.75753C19.3676 9.75159 19.3546 9.74943 19.342 9.75137C19.1929 9.77164 19.0425 9.78067 18.892 9.77837C18.862 9.77903 18.832 9.7807 18.802 9.78337C18.688 9.79237 18.588 9.76337 18.45 9.77837C18.3 9.79137 18.176 9.77837 18.016 9.77837H17.113C16.857 9.77837 16.445 9.71437 16.42 9.45837C16.4089 9.35068 16.4023 9.24259 16.4 9.13437C16.4 9.00903 16.411 8.86237 16.433 8.69437C16.473 8.38237 16.777 8.20137 17.09 8.20137H20.479C20.957 8.20137 21.434 8.44937 21.572 8.90737C21.628 9.0887 21.6563 9.2487 21.657 9.38737C21.657 9.6727 21.527 9.95137 21.267 10.2234L20.27 11.1624Z" fill="currentColor"/>
</svg>
