<svg width="26" height="26" viewBox="0 0 26 26" fill="none" xmlns="http://www.w3.org/2000/svg">
<path d="M8.125 3.25C7.22475 3.25 6.5 3.97475 6.5 4.875V21.125C6.5 22.0252 7.22475 22.75 8.125 22.75H17.875C18.7753 22.75 19.5 22.0252 19.5 21.125V4.875C19.5 3.97475 18.7753 3.25 17.875 3.25H8.125ZM8.9375 4.875H17.0625C17.5126 4.875 17.875 5.23738 17.875 5.6875V17.0625C17.875 17.5126 17.5126 17.875 17.0625 17.875H8.9375C8.72201 17.875 8.51535 17.7894 8.36298 17.637C8.2106 17.4847 8.125 17.278 8.125 17.0625V5.6875C8.125 5.23738 8.48738 4.875 8.9375 4.875ZM12.1875 19.5H13.8125C14.028 19.5 14.2347 19.5856 14.387 19.738C14.5394 19.8903 14.625 20.097 14.625 20.3125C14.625 20.528 14.5394 20.7347 14.387 20.887C14.2347 21.0394 14.028 21.125 13.8125 21.125H12.1875C11.972 21.125 11.7653 21.0394 11.613 20.887C11.4606 20.7347 11.375 20.528 11.375 20.3125C11.375 20.097 11.4606 19.8903 11.613 19.738C11.7653 19.5856 11.972 19.5 12.1875 19.5Z" fill="currentColor"/>
</svg>
