<svg width="22" height="22" viewBox="0 0 22 22" fill="none" xmlns="http://www.w3.org/2000/svg">
<path d="M3.66602 11.917C5.30052 12.1112 6.82214 12.8497 7.98604 14.0136C9.14994 15.1775 9.88843 16.6992 10.0827 18.3337C10.8929 17.8665 11.5707 17.2005 12.0519 16.3985C12.5331 15.5965 12.8018 14.6851 12.8327 13.7503C14.3719 13.2089 15.7159 12.2232 16.6949 10.9178C17.6739 9.61252 18.2439 8.04622 18.3327 6.41699C18.3327 5.68765 18.043 4.98817 17.5272 4.47245C17.0115 3.95672 16.312 3.66699 15.5827 3.66699C13.9535 3.75582 12.3872 4.32577 11.0818 5.30476C9.77652 6.28374 8.79081 7.62781 8.24935 9.16699C7.31459 9.19786 6.40314 9.46659 5.60116 9.94778C4.79917 10.429 4.13314 11.1067 3.66602 11.917Z" stroke="#FFA629" stroke-width="2" stroke-linecap="round" stroke-linejoin="round"/>
<path d="M6.41621 12.834C5.46217 13.3726 4.69073 14.1839 4.20077 15.1638C3.71082 16.1437 3.52467 17.2476 3.66621 18.334C4.75261 18.4755 5.85652 18.2894 6.83643 17.7994C7.81635 17.3095 8.62761 16.538 9.16621 15.584M12.8329 8.25065C12.8329 8.49377 12.9295 8.72692 13.1014 8.89883C13.2733 9.07074 13.5064 9.16732 13.7495 9.16732C13.9927 9.16732 14.2258 9.07074 14.3977 8.89883C14.5696 8.72692 14.6662 8.49377 14.6662 8.25065C14.6662 8.00754 14.5696 7.77438 14.3977 7.60247C14.2258 7.43056 13.9927 7.33398 13.7495 7.33398C13.5064 7.33398 13.2733 7.43056 13.1014 7.60247C12.9295 7.77438 12.8329 8.00754 12.8329 8.25065Z" stroke="#FFA629" stroke-width="2" stroke-linecap="round" stroke-linejoin="round"/>
</svg>
