<svg width="26" height="26" viewBox="0 0 26 26" fill="none" xmlns="http://www.w3.org/2000/svg">
<path fill-rule="evenodd" clip-rule="evenodd" d="M9.01242 1.86775C10.5767 1.33258 11.5474 1 12.5625 1C13.5776 1 14.5483 1.33258 16.1126 1.86775L16.9002 2.13858C18.5046 2.68675 19.7439 3.11142 20.6301 3.47108C21.0764 3.652 21.461 3.82858 21.7698 4.00733C22.0677 4.18067 22.3656 4.39625 22.5682 4.6855C22.7686 4.97042 22.8726 5.32142 22.9376 5.6605C23.0058 6.0115 23.0459 6.43292 23.073 6.91717C23.125 7.877 23.125 9.19433 23.125 10.9017V12.6361C23.125 19.2455 18.133 22.4142 15.1647 23.7121L15.1354 23.724C14.7671 23.8854 14.4204 24.036 14.0228 24.1378C13.6036 24.2462 13.1573 24.2917 12.5625 24.2917C11.9667 24.2917 11.5225 24.2462 11.1022 24.1378C10.7046 24.036 10.3579 23.8854 9.98958 23.724L9.96033 23.7121C6.992 22.4142 2 19.2455 2 12.635V10.9017C2 9.19433 2 7.877 2.052 6.91608C2.07908 6.43292 2.11917 6.0115 2.18742 5.65942C2.25242 5.32142 2.35642 4.97042 2.55575 4.68442C2.75942 4.39625 3.05733 4.18067 3.35525 4.00733C3.664 3.82858 4.04858 3.652 4.49492 3.47108C5.38108 3.11142 6.62042 2.68675 8.22483 2.13858L9.01242 1.86775ZM11.75 2.72033C11.2105 2.83733 10.5204 3.06917 9.39917 3.45267L8.7795 3.665C7.14042 4.22617 5.9455 4.63567 5.107 4.97583C4.78541 5.10027 4.47269 5.2465 4.171 5.4135C4.09282 5.45894 4.01756 5.50924 3.94567 5.56408C3.92417 5.58025 3.90422 5.59838 3.88608 5.61825C3.87186 5.64374 3.86024 5.67059 3.85142 5.69842C3.82975 5.75764 3.807 5.84719 3.78317 5.96708C3.72327 6.31013 3.68707 6.6569 3.67483 7.00492C3.63042 7.82825 3.625 8.94408 3.625 10.4347L11.75 7.72642V2.72033ZM13.375 2.72033V7.72642L21.5 10.4347C21.5 8.94408 21.4946 7.82717 21.4502 7.00492C21.4379 6.6569 21.4017 6.31013 21.3418 5.96708C21.3248 5.87616 21.302 5.78642 21.2736 5.69842C21.2648 5.67059 21.2531 5.64374 21.2389 5.61825C21.2208 5.59838 21.2008 5.58025 21.1793 5.56408C21.1075 5.50886 21.0322 5.45821 20.954 5.41242C20.6523 5.24616 20.3395 5.10065 20.018 4.97692C19.1795 4.63567 17.9846 4.22617 16.3455 3.66608L15.7248 3.45267C14.6046 3.06917 13.9145 2.83733 13.375 2.72033ZM11.75 9.44025L3.625 12.1486V12.6361C3.625 18.2434 7.8175 21.0027 10.6114 22.2225C11.0133 22.398 11.2463 22.4977 11.5052 22.5637C11.5796 22.5833 11.6612 22.6002 11.75 22.6147V9.44025ZM13.375 22.6147V9.44025L21.5 12.1486V12.6361C21.5 18.2434 17.3075 21.0027 14.5136 22.2225C14.1117 22.398 13.8787 22.4977 13.6198 22.5637C13.5454 22.5833 13.4638 22.6002 13.375 22.6147Z" fill="currentColor"/>
</svg>
