<svg width="23" height="23" viewBox="0 0 23 23" fill="none" xmlns="http://www.w3.org/2000/svg">
<path d="M11.4997 16.1C11.199 16.1014 10.9016 16.1619 10.6244 16.2783C10.3472 16.3946 10.0956 16.5644 9.88407 16.778C9.67251 16.9916 9.5051 17.2448 9.39142 17.5231C9.27774 17.8014 9.22 18.0994 9.22152 18.4C9.22152 19.6696 10.2416 20.7 11.4997 20.7C11.8002 20.6985 12.0975 20.6378 12.3746 20.5214C12.6516 20.405 12.9031 20.2352 13.1145 20.0216C13.326 19.808 13.4933 19.5549 13.6069 19.2766C13.7205 18.9984 13.7782 18.7005 13.7767 18.4C13.7767 17.1292 12.7578 16.1 11.4997 16.1ZM6.66967 13.5217L8.27966 15.1478C8.70045 14.7211 9.20185 14.3822 9.75473 14.1509C10.3076 13.9196 10.9009 13.8005 11.5002 13.8005C12.0995 13.8005 12.6929 13.9196 13.2458 14.1509C13.7986 14.3822 14.3 14.7211 14.7208 15.1478L16.3297 13.5217C15.6985 12.8819 14.9465 12.3739 14.1173 12.0272C13.2882 11.6805 12.3984 11.5019 11.4997 11.5019C10.6009 11.5019 9.71116 11.6805 8.88201 12.0272C8.05286 12.3739 7.30086 12.8819 6.66967 13.5217ZM3.44967 10.2672L5.05967 11.8933C5.90102 11.0401 6.90356 10.3625 8.00901 9.90011C9.11447 9.43767 10.3008 9.19954 11.4991 9.19954C12.6974 9.19954 13.8837 9.43767 14.9892 9.90011C16.0946 10.3625 17.0972 11.0401 17.9385 11.8933L19.5497 10.2672C18.4979 9.20044 17.2447 8.35336 15.8627 7.77519C14.4808 7.19701 12.9977 6.89927 11.4997 6.89927C10.0016 6.89927 8.51855 7.19701 7.1366 7.77519C5.75464 8.35336 4.50139 9.20044 3.44967 10.2672ZM0.228516 7.01499L1.83852 8.64109C3.10068 7.36096 4.60469 6.34444 6.26313 5.65061C7.92157 4.95678 9.70136 4.59949 11.4991 4.59949C13.2968 4.59949 15.0766 4.95678 16.7351 5.65061C18.3935 6.34444 19.8975 7.36096 21.1597 8.64109L22.7697 7.01499C21.2972 5.52151 19.5425 4.33557 17.6077 3.52611C15.6728 2.71665 13.5964 2.2998 11.4991 2.2998C9.40176 2.2998 7.32534 2.71665 5.39051 3.52611C3.45568 4.33557 1.70103 5.52151 0.228516 7.01499Z" fill="currentColor"/>
</svg>
