<svg width="23" height="22" viewBox="0 0 23 22" fill="none" xmlns="http://www.w3.org/2000/svg">
<path d="M7.24266 15.5684C7.55562 15.7798 7.92863 15.8923 8.31057 15.8911V15.8862C8.6712 15.8871 9.02415 15.7865 9.32553 15.597C9.62692 15.4075 9.86344 15.1374 10.0057 14.8203L10.7887 12.5419C10.9695 12.0258 11.2733 11.5569 11.6762 11.1725C12.079 10.7881 12.5698 10.4986 13.1098 10.3271L15.381 9.62062C15.7475 9.49824 16.0642 9.2682 16.286 8.96334C16.5077 8.65848 16.6231 8.29439 16.6158 7.92303C16.6084 7.55167 16.4786 7.19202 16.2449 6.89544C16.0113 6.59885 15.6857 6.38047 15.3146 6.27149L13.0727 5.57477C12.5306 5.40185 12.038 5.11045 11.634 4.72367C11.23 4.33689 10.9257 3.86537 10.7453 3.3465L10.007 1.17445C9.8782 0.828504 9.64001 0.529528 9.32551 0.319064C9.01101 0.1086 8.6358 -0.00289978 8.25203 5.73336e-05C7.86826 0.00301445 7.49498 0.120282 7.18406 0.335565C6.87314 0.550848 6.64002 0.853456 6.51709 1.20134L5.77236 3.39172C5.59253 3.89551 5.29563 4.3537 4.904 4.73183C4.51237 5.10996 4.03621 5.39817 3.51136 5.57477L1.24141 6.27149C0.877082 6.39211 0.56141 6.61894 0.338752 6.92008C0.116093 7.22123 -0.00236059 7.58156 3.5651e-05 7.95045C0.00243189 8.31933 0.125557 8.67823 0.352111 8.9767C0.578665 9.27518 0.897259 9.49823 1.26312 9.61451L3.50369 10.31C4.04579 10.4841 4.53819 10.7764 4.94209 11.1637C5.34599 11.551 5.65033 12.0228 5.83112 12.5419L6.56947 14.7115C6.69593 15.0575 6.93097 15.3569 7.24266 15.5684ZM6.76491 10.3723C6.62263 10.1941 6.46769 10.0254 6.30121 9.86753H6.30504C5.688 9.27709 4.93576 8.83224 4.10791 8.56821L2.06406 7.94728L4.12196 7.30678C4.93635 7.03697 5.67498 6.59158 6.28077 6.00502C6.88386 5.4147 7.3386 4.70076 7.61055 3.91732L8.26842 1.98362L8.92756 3.92343C9.20314 4.71398 9.66779 5.43206 10.2845 6.0205C10.9013 6.60893 11.653 7.05148 12.48 7.3129L14.5494 7.95094L12.5183 8.58043C11.6927 8.84323 10.9426 9.28666 10.3274 9.87547C9.71231 10.4643 9.24917 11.1823 8.97482 11.9723L8.31696 13.906L7.65909 11.9687C7.45749 11.392 7.15514 10.8523 6.76491 10.3723ZM17.0365 21.7362C16.7928 21.57 16.6096 21.3349 16.5128 21.0639L16.0938 19.8343C16.0126 19.6002 15.8755 19.3875 15.6935 19.2129C15.5115 19.0383 15.2895 18.9066 15.045 18.8283L13.7791 18.4335C13.4896 18.3396 13.2378 18.1616 13.059 17.9243C12.8801 17.687 12.7831 17.4023 12.7815 17.1097C12.7811 16.8188 12.8759 16.5352 13.0525 16.2984C13.2291 16.0617 13.4788 15.8838 13.7664 15.7896L15.0514 15.3912C15.2905 15.3099 15.5069 15.1773 15.684 15.0035C15.8611 14.8298 15.9943 14.6195 16.0734 14.3889L16.4872 13.1775C16.5846 12.9035 16.7686 12.6651 17.0137 12.4954C17.2587 12.3256 17.5529 12.233 17.8554 12.2302C18.1579 12.2273 18.4539 12.3145 18.7024 12.4796C18.9509 12.6447 19.1397 12.8797 19.2426 13.1519L19.6629 14.3913C19.7452 14.6236 19.8825 14.8346 20.0643 15.0076C20.246 15.1807 20.4671 15.3111 20.7103 15.3887L21.9775 15.7835C22.2696 15.8709 22.5256 16.0441 22.7091 16.2785C22.8925 16.5129 22.9943 16.7967 22.9998 17.0895C23.0053 17.3823 22.9143 17.6693 22.7398 17.9099C22.5652 18.1505 22.316 18.3324 22.0273 18.4298L20.7321 18.832C20.4885 18.9106 20.2674 19.0423 20.086 19.2167C19.9047 19.391 19.7682 19.6033 19.6871 19.8367L19.2758 21.0456C19.1762 21.3267 18.9871 21.5712 18.7329 21.7423C18.4849 21.911 18.188 22.0011 17.8837 22C17.5794 21.9989 17.2832 21.9066 17.0365 21.7362ZM15.7208 17.1122C16.2222 17.2841 16.6771 17.5609 17.0523 17.9225C17.4276 18.2841 17.7137 18.7214 17.8898 19.2023C18.0678 18.7234 18.3551 18.2884 18.7307 17.929C19.1063 17.5696 19.5609 17.2947 20.0614 17.1244C19.556 16.9551 19.0967 16.6797 18.7169 16.3185C18.3372 15.9572 18.0467 15.5193 17.8668 15.0367C17.6911 15.5131 17.4073 15.9464 17.0358 16.3055C16.6643 16.6645 16.2144 16.9405 15.7182 17.1134" fill="currentColor"/>
</svg>
