<svg width="23" height="24" viewBox="0 0 23 24" fill="none" xmlns="http://www.w3.org/2000/svg">
<path d="M3.51081 19.9624C2.41245 18.8913 1.53635 17.6101 0.933648 16.1936C0.330945 14.777 0.0137031 13.2534 0.000434203 11.7117C-0.0128347 10.1701 0.278135 8.64114 0.856365 7.21421C1.4346 5.78728 2.28851 4.49091 3.36827 3.40074C4.44804 2.31056 5.73204 1.44842 7.14534 0.864619C8.55865 0.280816 10.073 -0.0129584 11.5999 0.000438388C13.1269 0.0138352 14.6359 0.334135 16.039 0.942647C17.442 1.55116 18.711 2.4357 19.7718 3.54465C21.8666 5.73448 23.0258 8.66741 22.9996 11.7117C22.9734 14.7561 21.7639 17.6682 19.6317 19.821C17.4995 21.9737 14.6152 23.1948 11.5999 23.2213C8.58467 23.2477 5.67974 22.0774 3.51081 19.9624ZM10.4913 5.9481V12.9146H12.7913V5.9481H10.4913ZM10.4913 15.2368V17.5589H12.7913V15.2368H10.4913Z" fill="#FDC700"/>
</svg>
